<?xml version="1.0" encoding="UTF-8" standalone="no"?>
<!DOCTYPE svg PUBLIC "-//W3C//DTD SVG 1.1//EN" "http://www.w3.org/Graphics/SVG/1.1/DTD/svg11.dtd">
<svg width="100%" height="100%" viewBox="0 0 400 400" version="1.1" xmlns="http://www.w3.org/2000/svg" xmlns:xlink="http://www.w3.org/1999/xlink" xml:space="preserve" xmlns:serif="http://www.serif.com/" style="fill-rule:evenodd;clip-rule:evenodd;stroke-linecap:round;stroke-linejoin:round;stroke-miterlimit:1.5;">
    <g transform="matrix(0.640615,0.640615,-0.640615,0.640615,178.074964,-50.620078)">
        <path d="M274.344,154.777L274.344,188.239C359.866,198.357 352.81,299.522 352.81,299.522C351.698,312.451 340.879,322.38 327.902,322.38L99.126,322.38C86.149,322.38 75.33,312.451 74.218,299.522C74.218,299.522 67.344,200.963 149.405,188.678L149.405,154.777L188.958,154.777L188.958,237.426L166.974,237.426C138.59,237.426 128.614,256.223 125.282,272.38L212.716,272.38L301.746,272.38C298.414,256.223 288.439,237.426 260.054,237.426L234.76,237.426L234.76,154.777L274.344,154.777ZM149.405,111.086L149.405,92.594C125.73,83.852 111.966,64.936 104.107,45.81C94.699,22.912 94.772,0 94.772,0C94.772,-13.807 105.965,-25 119.772,-25L208.886,-25C210.188,-25 211.467,-24.9 212.716,-24.708C213.964,-24.9 215.244,-25 216.546,-25L305.66,-25C319.467,-25 330.66,-13.807 330.66,0C330.66,0 330.733,22.912 321.324,45.81C313.281,65.385 299.053,84.739 274.344,93.192L274.344,111.086L234.76,111.086L234.76,47.617L245.984,47.617C262.765,47.617 270.881,37.017 275.076,26.807C275.324,26.204 275.561,25.601 275.787,25L216.546,25C215.244,25 213.964,24.9 212.716,24.708C211.467,24.9 210.188,25 208.886,25L149.645,25C149.871,25.601 150.107,26.204 150.355,26.807C154.55,37.017 162.666,47.617 179.447,47.617L188.958,47.617L188.958,111.086L149.405,111.086Z" style="fill:white;"/>
    </g>
    <g transform="matrix(0.579458,0.579458,-0.579458,0.579458,163.983117,-10.510017)">
        <path d="M212.716,297.38L212.716,443.136" style="fill:none;stroke:white;stroke-width:61.01px;"/>
    </g>
    <g transform="matrix(1,0,0,1,-11.106583,16.26612)">
        <path d="M61,21.43L371.914,332.344" style="fill:none;stroke:white;stroke-width:39.58px;"/>
    </g>
</svg>
