<?xml version="1.0" encoding="UTF-8" standalone="no"?>
<!DOCTYPE svg PUBLIC "-//W3C//DTD SVG 1.1//EN" "http://www.w3.org/Graphics/SVG/1.1/DTD/svg11.dtd">
<svg width="100%" height="100%" viewBox="0 0 400 400" version="1.1" xmlns="http://www.w3.org/2000/svg" xmlns:xlink="http://www.w3.org/1999/xlink" xml:space="preserve" xmlns:serif="http://www.serif.com/" style="fill-rule:evenodd;clip-rule:evenodd;stroke-linejoin:round;stroke-miterlimit:2;">
    <g transform="matrix(0.772118,0,0,0.772118,45.576389,44.755865)">
        <path d="M110.448,-32.378L400,-32.378C417.882,-32.378 432.378,-17.882 432.378,0L432.378,290.935C421.801,287.691 410.572,285.945 398.937,285.945C388.079,285.945 377.573,287.466 367.622,290.306L367.622,32.378L110.448,32.378C113.486,22.113 115.117,11.245 115.117,-0C115.117,-11.245 113.486,-22.113 110.448,-32.378ZM289.552,432.378L-0,432.378C-17.882,432.378 -32.378,417.882 -32.378,400L-32.378,109.065C-21.801,112.309 -10.572,114.055 1.063,114.055C11.921,114.055 22.427,112.534 32.378,109.694L32.378,367.622L289.552,367.622C286.514,377.887 284.883,388.755 284.883,400C284.883,411.245 286.514,422.113 289.552,432.378ZM1.063,-6.126C4.444,-6.126 7.189,-3.381 7.189,-0C7.189,3.381 4.444,6.126 1.063,6.126C-2.319,6.126 -5.064,3.381 -5.064,-0C-5.064,-3.381 -2.319,-6.126 1.063,-6.126ZM398.937,393.874C402.319,393.874 405.064,396.619 405.064,400C405.064,403.381 402.319,406.126 398.937,406.126C395.556,406.126 392.811,403.381 392.811,400C392.811,396.619 395.556,393.874 398.937,393.874Z" style="fill:white;"/>
    </g>
    <g transform="matrix(2.130137,0,0,2.130137,-37.244582,-56.330015)">
        <circle cx="39.266" cy="47.455" r="21.781" style="fill:white;"/>
        <path d="M39.266,25.674C51.287,25.674 61.047,35.434 61.047,47.455C61.047,59.476 51.287,69.236 39.266,69.236C27.244,69.236 17.485,59.476 17.485,47.455C17.485,35.434 27.244,25.674 39.266,25.674ZM39.266,44.256C37.5,44.256 36.067,45.69 36.067,47.455C36.067,49.22 37.5,50.654 39.266,50.654C41.031,50.654 42.464,49.22 42.464,47.455C42.464,45.69 41.031,44.256 39.266,44.256Z" style="fill:white;"/>
    </g>
    <g transform="matrix(2.130137,0,0,2.130137,269.961591,252.517207)">
        <circle cx="39.266" cy="47.455" r="21.781" style="fill:white;"/>
        <path d="M39.266,25.674C51.287,25.674 61.047,35.434 61.047,47.455C61.047,59.476 51.287,69.236 39.266,69.236C27.244,69.236 17.485,59.476 17.485,47.455C17.485,35.434 27.244,25.674 39.266,25.674ZM39.266,44.256C37.5,44.256 36.067,45.69 36.067,47.455C36.067,49.22 37.5,50.654 39.266,50.654C41.031,50.654 42.464,49.22 42.464,47.455C42.464,45.69 41.031,44.256 39.266,44.256Z" style="fill:white;"/>
    </g>
    <g transform="matrix(2.130137,0,0,2.130137,-37.244582,-56.330015)">
        <path d="M39.266,25.674C51.287,25.674 61.047,35.434 61.047,47.455C61.047,59.476 51.287,69.236 39.266,69.236C27.244,69.236 17.485,59.476 17.485,47.455C17.485,35.434 27.244,25.674 39.266,25.674ZM183.485,170.663C195.506,170.663 205.266,180.423 205.266,192.444C205.266,204.466 195.506,214.226 183.485,214.226C171.463,214.226 161.704,204.466 161.704,192.444C161.704,180.423 171.463,170.663 183.485,170.663Z" style="fill:white;"/>
    </g>
</svg>
