<?xml version="1.0" encoding="UTF-8" standalone="no"?>
<!DOCTYPE svg PUBLIC "-//W3C//DTD SVG 1.1//EN" "http://www.w3.org/Graphics/SVG/1.1/DTD/svg11.dtd">
<svg width="100%" height="100%" viewBox="0 0 400 400" version="1.1" xmlns="http://www.w3.org/2000/svg" xmlns:xlink="http://www.w3.org/1999/xlink" xml:space="preserve" xmlns:serif="http://www.serif.com/" style="fill-rule:evenodd;clip-rule:evenodd;stroke-linejoin:round;stroke-miterlimit:2;">
    <g>
        <g transform="matrix(0,-0.781168,0.781168,0,-176.480206,382.967069)">
            <path d="M287.37,535.175C233.349,589.204 158.766,622.672 76.365,622.833C76.238,622.851 76.046,622.877 75.796,622.911L75.796,532.157C133.383,532.149 185.516,508.801 223.251,471.058L287.37,535.175Z" style="fill:rgb(255,210,106);"/>
        </g>
        <g transform="matrix(-0.552369,-0.552369,0.552369,-0.552369,-60.569754,544.399343)">
            <path d="M287.37,535.175C233.349,589.204 158.766,622.672 76.365,622.833C76.238,622.851 76.046,622.877 75.796,622.911L75.796,532.157C133.383,532.149 185.516,508.801 223.251,471.058L287.37,535.175Z" style="fill:rgb(255,62,48);"/>
        </g>
        <g transform="matrix(0,-0.390584,0.390584,0,-50.08492,353.373447)">
            <path d="M447.003,323.606C447.003,426.104 405.464,518.899 338.302,586.077L210.065,457.843C244.409,423.483 265.65,376.025 265.65,323.606L447.003,323.606ZM139.631,323.606C116.257,324.291 95.127,325.213 78.286,326.066L75.825,323.606L139.631,323.606Z" style="fill:rgb(75,255,126);"/>
        </g>
        <g transform="matrix(0,-0.390584,0.390584,0,-50.08492,353.373447)">
            <path d="M338.302,586.077C271.131,653.263 178.332,694.825 75.825,694.841L75.825,513.38L77.157,513.483L77.181,513.483C129.07,513.105 176.01,491.914 210.065,457.843L338.302,586.077ZM78.286,326.066C77.455,326.108 76.635,326.15 75.825,326.192L75.825,323.606L78.286,326.066Z" style="fill:rgb(34,103,255);"/>
        </g>
        <g transform="matrix(0.827119,0,0,0.827119,34.637801,34.576475)">
            <path d="M400,26.087L400,373.913C400,388.311 388.311,400 373.913,400L26.087,400C11.689,400 0,388.311 0,373.913L0,26.087C0,11.689 11.689,0 26.087,0L373.913,0C388.311,0 400,11.689 400,26.087ZM50.376,50.376L50.376,349.624L349.624,349.624L349.624,50.376L50.376,50.376Z" style="fill:white;"/>
        </g>
    </g>
</svg>
