<?xml version="1.0" encoding="UTF-8" standalone="no"?>
<!DOCTYPE svg PUBLIC "-//W3C//DTD SVG 1.1//EN" "http://www.w3.org/Graphics/SVG/1.1/DTD/svg11.dtd">
<svg width="100%" height="100%" viewBox="0 0 400 400" version="1.1" xmlns="http://www.w3.org/2000/svg" xmlns:xlink="http://www.w3.org/1999/xlink" xml:space="preserve" xmlns:serif="http://www.serif.com/" style="fill-rule:evenodd;clip-rule:evenodd;stroke-linejoin:round;stroke-miterlimit:2;">
    <g>
        <path d="M400,34.783L400,365.217C400,384.414 384.414,400 365.217,400L34.783,400C15.586,400 0,384.414 0,365.217L0,34.783C0,15.586 15.586,0 34.783,0L365.217,0C384.414,0 400,15.586 400,34.783Z"/>
        <g transform="matrix(0.722345,0,0,0.722345,55.549492,55.53115)">
            <path d="M-28.95,399.999L-28.95,-0C-28.95,-15.989 -15.989,-28.95 0,-28.95L400,-28.95C415.985,-28.95 428.945,-15.994 428.95,-0.009L429.069,399.991C429.071,407.671 426.022,415.037 420.593,420.468C415.164,425.899 407.799,428.95 400.119,428.95L125.17,428.95L0,428.95C-0.213,428.95 -0.426,428.948 -0.639,428.943C-6.112,428.825 -11.214,427.183 -15.536,424.426C-19.29,422.041 -22.518,418.777 -24.884,414.793C-25.299,414.098 -25.685,413.384 -26.041,412.652C-26.506,411.735 -27.411,409.901 -28.08,407.064C-28.648,404.802 -28.95,402.435 -28.95,399.999ZM52.317,28.95L28.95,28.95L28.95,106.113C30.955,102.134 33.017,97.976 35.132,93.636C48.677,65.832 52.06,43.538 52.317,28.95ZM142.423,28.95L110.395,28.95C110.178,51.149 105.22,81.97 87.183,118.994C56.958,181.033 38.757,207.327 28.95,218.663L28.95,278.811C46.033,251.347 68.169,217.731 96.825,176.788C149.283,101.839 147.526,51.356 142.423,28.95ZM257.117,28.95L201.766,28.95C207.266,67.057 201.226,128.599 144.26,209.989C88.458,289.716 58.541,341.524 43.229,371.05L100.11,371.05C105.344,348.53 117.494,313.72 145.555,268.231C189.898,196.346 212.895,184.271 239.323,112.373C253.222,74.561 256.735,46.449 257.117,28.95ZM279.123,371.05L371.161,371.05L371.133,278.16C349.137,280.906 318.572,289.974 300.226,317.869C285.293,340.575 280.444,358.99 279.123,371.05ZM371.116,220.82L371.059,28.95L315.074,28.95C314.707,52.637 310.176,87.436 293.668,132.348C265.562,208.81 241.991,222.181 194.833,298.629C175.622,329.771 165.472,354.122 160.109,371.05L219.746,371.05C220.892,349.952 228.581,321.437 251.851,286.054C283.255,238.305 337.023,224.567 371.116,220.82Z" style="fill:white;"/>
        </g>
    </g>
</svg>
