<?xml version="1.0" encoding="UTF-8" standalone="no"?>
<!DOCTYPE svg PUBLIC "-//W3C//DTD SVG 1.1//EN" "http://www.w3.org/Graphics/SVG/1.1/DTD/svg11.dtd">
<svg width="100%" height="100%" viewBox="0 0 400 400" version="1.1" xmlns="http://www.w3.org/2000/svg" xmlns:xlink="http://www.w3.org/1999/xlink" xml:space="preserve" xmlns:serif="http://www.serif.com/" style="fill-rule:evenodd;clip-rule:evenodd;stroke-linecap:round;stroke-linejoin:round;stroke-miterlimit:1.5;">
    <path d="M242.028,242.028L372.759,372.759" style="fill:none;stroke:white;stroke-width:50px;"/>
    <g transform="matrix(1,0,0,1,-94.648447,-53.920405)">
        <path d="M238.538,53.92C317.953,53.92 382.428,118.395 382.428,197.81C382.428,277.225 317.953,341.7 238.538,341.7C159.123,341.7 94.648,277.225 94.648,197.81C94.648,118.395 159.123,53.92 238.538,53.92ZM238.538,103.92C186.719,103.92 144.648,145.991 144.648,197.81C144.648,249.629 186.719,291.7 238.538,291.7C290.357,291.7 332.428,249.629 332.428,197.81C332.428,145.991 290.357,103.92 238.538,103.92Z" style="fill:white;"/>
    </g>
</svg>
