<?xml version="1.0" encoding="UTF-8" standalone="no"?>
<!DOCTYPE svg PUBLIC "-//W3C//DTD SVG 1.1//EN" "http://www.w3.org/Graphics/SVG/1.1/DTD/svg11.dtd">
<svg width="100%" height="100%" viewBox="0 0 400 400" version="1.1" xmlns="http://www.w3.org/2000/svg" xmlns:xlink="http://www.w3.org/1999/xlink" xml:space="preserve" xmlns:serif="http://www.serif.com/" style="fill-rule:evenodd;clip-rule:evenodd;stroke-linecap:round;stroke-linejoin:round;stroke-miterlimit:1.5;">
    <path d="M400,52L400,348C400,376.7 376.7,400 348,400L52,400C23.3,400 0,376.7 0,348L0,52C0,23.3 23.3,0 52,0L348,0C376.7,0 400,23.3 400,52Z"/>
    <g transform="matrix(0.827119,0,0,0.827119,34.637801,34.576475)">
        <path d="M400,26.087L400,373.913C400,388.311 388.311,400 373.913,400L26.087,400C11.689,400 0,388.311 0,373.913L0,26.087C0,11.689 11.689,0 26.087,0L373.913,0C388.311,0 400,11.689 400,26.087Z"/>
    </g>
    <g transform="matrix(0.827119,0,0,0.827119,34.637801,34.576475)">
        <path d="M400,26.087L400,373.913C400,388.311 388.311,400 373.913,400L26.087,400C11.689,400 0,388.311 0,373.913L0,26.087C0,11.689 11.689,0 26.087,0L373.913,0C388.311,0 400,11.689 400,26.087ZM50.376,50.376L50.376,349.624L349.624,349.624L349.624,50.376L50.376,50.376Z" style="fill:white;"/>
    </g>
    <g>
        <g transform="matrix(0.827119,0,0,0.827119,34.637801,34.576475)">
            <path d="M400,26.087L400,373.913C400,388.311 388.311,400 373.913,400L26.087,400C11.689,400 0,388.311 0,373.913L0,26.087C0,11.689 11.689,0 26.087,0L373.913,0C388.311,0 400,11.689 400,26.087Z"/>
        </g>
        <g transform="matrix(0.827119,0,0,0.827119,34.637801,34.576475)">
            <path d="M400,26.087L400,373.913C400,388.311 388.311,400 373.913,400L26.087,400C11.689,400 0,388.311 0,373.913L0,26.087C0,11.689 11.689,0 26.087,0L373.913,0C388.311,0 400,11.689 400,26.087ZM50.376,50.376L50.376,349.624L349.624,349.624L349.624,50.376L50.376,50.376Z" style="fill:white;"/>
        </g>
    </g>
    <g transform="matrix(0.984208,0.177014,-0.177014,0.984208,50.780215,-27.324991)">
        <path d="M119.169,272.517C170.747,212.035 222.325,209.828 273.903,272.517" style="fill:none;stroke:white;stroke-width:29.17px;"/>
    </g>
    <g transform="matrix(2.2,0,0,2.2,-136.372948,-156.028648)">
        <circle cx="123.788" cy="146.42" r="4.619" style="fill:white;stroke:white;stroke-width:13.26px;"/>
    </g>
    <g transform="matrix(2.2,0,0,2.2,-10.37562,-176.351974)">
        <circle cx="123.788" cy="146.42" r="4.619" style="fill:white;stroke:white;stroke-width:13.26px;"/>
    </g>
</svg>
