<?xml version="1.0" encoding="UTF-8" standalone="no"?>
<!DOCTYPE svg PUBLIC "-//W3C//DTD SVG 1.1//EN" "http://www.w3.org/Graphics/SVG/1.1/DTD/svg11.dtd">
<svg width="100%" height="100%" viewBox="0 0 400 400" version="1.1" xmlns="http://www.w3.org/2000/svg" xmlns:xlink="http://www.w3.org/1999/xlink" xml:space="preserve" xmlns:serif="http://www.serif.com/" style="fill-rule:evenodd;clip-rule:evenodd;stroke-linejoin:round;stroke-miterlimit:2;">
    <g>
        <path d="M400,52L400,348C400,376.7 376.7,400 348,400L52,400C23.3,400 0,376.7 0,348L0,52C0,23.3 23.3,0 52,0L348,0C376.7,0 400,23.3 400,52Z"/>
        <g transform="matrix(0.827119,0,0,0.827119,34.637801,34.576475)">
            <path d="M400,26.087L400,373.913C400,388.311 388.311,400 373.913,400L26.087,400C11.689,400 0,388.311 0,373.913L0,26.087C0,11.689 11.689,0 26.087,0L373.913,0C388.311,0 400,11.689 400,26.087Z"/>
        </g>
        <g transform="matrix(0.827119,0,0,0.827119,34.637801,34.576475)">
            <path d="M400,26.087L400,373.913C400,388.311 388.311,400 373.913,400L26.087,400C11.689,400 0,388.311 0,373.913L0,26.087C0,11.689 11.689,0 26.087,0L373.913,0C388.311,0 400,11.689 400,26.087ZM50.376,50.376L50.376,349.624L349.624,349.624L349.624,50.376L50.376,50.376Z" style="fill:white;"/>
        </g>
        <g transform="matrix(1,0,0,1,7.280984,92.501168)">
            <path d="M57.77,145.738C46.271,145.738 36.936,136.402 36.936,124.904C36.936,113.406 46.271,104.071 57.77,104.071L130.923,104.071C142.429,104.071 151.757,113.398 151.757,124.904L151.757,167.619L179.228,167.619L179.228,124.904C179.228,113.398 188.556,104.071 200.062,104.071L273.002,104.071C284.508,104.071 293.836,113.398 293.836,124.904L293.836,250.376C293.836,261.874 284.501,271.209 273.002,271.209C261.504,271.209 252.169,261.874 252.169,250.376L252.169,145.738L220.895,145.738L220.895,188.452C220.895,199.958 211.567,209.286 200.062,209.286L130.923,209.286C119.417,209.286 110.09,199.958 110.09,188.452L110.09,145.738L57.77,145.738Z" style="fill:white;"/>
        </g>
        <g transform="matrix(0.963592,0,0,0.467899,32.655612,78.670459)">
            <path d="M239.985,217.405C239.985,241.98 230.297,261.931 218.364,261.931C206.432,261.931 196.744,241.98 196.744,217.405L196.744,143.141L124.468,143.141C112.535,143.141 102.847,123.19 102.847,98.615C102.847,74.041 112.535,54.09 124.468,54.09L218.364,54.09C230.305,54.09 239.985,74.025 239.985,98.615L239.985,217.405Z" style="fill:white;"/>
        </g>
        <g transform="matrix(1,0,0,1,7.280984,9.707978)">
            <path d="M166.144,144.419C166.144,155.917 156.809,165.252 145.311,165.252C133.813,165.252 124.478,155.917 124.478,144.419L124.478,115.105C124.478,103.606 133.813,94.271 145.311,94.271C156.809,94.271 166.144,103.606 166.144,115.105L166.144,144.419Z" style="fill:white;"/>
        </g>
        <g transform="matrix(0.963592,0,0,0.467899,32.655612,107.984441)">
            <path d="M239.985,217.405C239.985,241.98 230.297,261.931 218.364,261.931C206.432,261.931 196.744,241.98 196.744,217.405L196.744,143.141L124.468,143.141C112.535,143.141 102.847,123.19 102.847,98.615C102.847,74.041 112.535,54.09 124.468,54.09L218.364,54.09C230.305,54.09 239.985,74.025 239.985,98.615L239.985,217.405Z" style="fill:white;"/>
        </g>
    </g>
</svg>
